<svg role="img" viewBox="0 0 24 24" xmlns="http://www.w3.org/2000/svg"><title>PayPal</title><path fill="#009CDE" d="M20.067 8.478c.492.876.764 1.906.764 3.108 0 4.474-3.702 8.062-8.17 8.062H9.02l-1.462 9.352H3.3l.157-.98h3.065l1.462-9.353h3.642c4.468 0 8.17-3.587 8.17-8.061a7.562 7.562 0 0 0-.271-2.034" transform="translate(0 -5)"/><path fill="#003087" d="M18.95 5.878C18.003 4.139 16.084 3 13.6 3H5.836L1.8 29h4.257l1.462-9.352h3.642c4.468 0 8.17-3.588 8.17-8.062 0-2.533-.894-4.541-2.38-5.708M9.021 17.648H5.52l2.308-12.72h5.772c1.588 0 2.89.498 3.65 1.374.52.6.83 1.39.93 2.318.02.213.03.432.02.653-.15 3.37-3.143 6.375-6.64 6.375h-3.54" transform="translate(0 -5)"/></svg>
