<svg xmlns="http://www.w3.org/2000/svg" viewBox="0 0 32 32"><path d="M22.7 17.21h-3.83v-1.975c0-1.572-1.3-2.86-2.86-2.86s-2.86 1.3-2.86 2.86v1.975H9.33v-1.975c0-3.708 3.023-6.7 6.7-6.7 3.708 0 6.7 3.023 6.7 6.7z" fill="#ffa400"/><path d="M24.282 17.21H7.758a1.27 1.27 0 0 0-1.29 1.29V30.7A1.27 1.27 0 0 0 7.758 32h16.524a1.27 1.27 0 0 0 1.29-1.29V18.5c-.04-.725-.605-1.3-1.3-1.3zm-7.456 8.02v1.652c0 .443-.363.846-.846.846-.443 0-.846-.363-.846-.846V25.23c-.524-.282-.846-.846-.846-1.49 0-.927.766-1.693 1.693-1.693s1.693.766 1.693 1.693c.04.645-.322 1.21-.846 1.49z" fill="#003a70"/><path d="M6.066 15.395h-4a1.17 1.17 0 0 1-1.169-1.169 1.17 1.17 0 0 1 1.169-1.169h4a1.17 1.17 0 0 1 1.169 1.169 1.17 1.17 0 0 1-1.169 1.169zm2.82-6.287a1.03 1.03 0 0 1-.725-.282l-3.144-2.58c-.484-.403-.564-1.128-.16-1.652.403-.484 1.128-.564 1.652-.16l3.144 2.58c.484.403.564 1.128.16 1.652-.282.282-.605.443-.927.443zm7.134-2.74a1.17 1.17 0 0 1-1.169-1.169V1.17A1.17 1.17 0 0 1 16.02 0a1.17 1.17 0 0 1 1.169 1.169V5.2a1.17 1.17 0 0 1-1.169 1.169zm7.093 2.74c-.322 0-.685-.16-.887-.443-.403-.484-.322-1.25.16-1.652l3.144-2.58c.484-.403 1.25-.322 1.652.16s.322 1.25-.16 1.652l-3.144 2.58a1.13 1.13 0 0 1-.766.282zm6.81 6.287h-4.03a1.17 1.17 0 0 1-1.169-1.169 1.17 1.17 0 0 1 1.169-1.169h4.03a1.17 1.17 0 0 1 1.169 1.169 1.17 1.17 0 0 1-1.169 1.169z" fill="#ffa400"/></svg>
