<svg width="100%" height="100%" viewBox="0 0 112 92" fill="none" xmlns="http://www.w3.org/2000/svg">
<path fill-rule="evenodd" clip-rule="evenodd" d="M98.0005 73.8525C98.0005 76.7391 95.7897 79.0792 93.0625 79.0792C90.3353 79.0792 88.1245 76.7391 88.1245 73.8525C88.1245 70.9658 90.3353 68.6257 93.0625 68.6257C95.7897 68.6257 98.0005 70.9658 98.0005 73.8525ZM96.116 73.8525C96.116 75.8006 94.6495 77.1947 93.0625 77.1947C91.4756 77.1947 90.009 75.8006 90.009 73.8525C90.009 71.9043 91.4756 70.5102 93.0625 70.5102C94.6495 70.5102 96.116 71.9043 96.116 73.8525Z" fill="currentColor"/>
<path fill-rule="evenodd" clip-rule="evenodd" d="M11.4059 16.577C13.3786 6.92863 21.8672 0 31.7152 0H84.3662C94.838 0 103.665 7.81002 104.941 18.2039L111.352 70.4314C111.564 71.5392 111.675 72.6828 111.675 73.8524C111.675 83.8446 103.575 91.9449 93.5825 91.9449H18.0925C8.1003 91.9449 0 83.8446 0 73.8524C0 73.2896 0.0256932 72.7329 0.0759704 72.1832L0.0381638 72.1755L0.115359 71.7979C0.237491 70.7174 0.454806 69.6656 0.75872 68.6513L11.4059 16.577ZM107.89 73.1583L107.629 71.0329C106.319 64.4724 100.528 59.5288 93.5825 59.5288H18.0925C11.6658 59.5288 6.22763 63.7614 4.41352 69.5911L3.84417 72.3758C3.79446 72.8612 3.76899 73.3538 3.76899 73.8524C3.76899 81.763 10.1819 88.1759 18.0925 88.1759H93.5825C101.493 88.1759 107.906 81.763 107.906 73.8524C107.906 73.6197 107.901 73.3883 107.89 73.1583ZM101.2 18.663L106.408 61.0916C103.132 57.7984 98.5952 55.7599 93.5825 55.7599H18.0925C13.6149 55.7599 9.51717 57.3864 6.35799 60.0809L15.0985 17.332C16.7125 9.43786 23.6578 3.76899 31.7152 3.76899H84.3662C92.934 3.76899 100.156 10.159 101.2 18.663Z" fill="currentColor"/>
<path d="M42.518 42.9917H68.4819C68.9036 42.9916 69.3181 42.8821 69.6848 42.674C70.0516 42.4658 70.358 42.166 70.5742 41.804C70.7904 41.4419 70.909 41.03 70.9184 40.6084C70.9278 40.1868 70.8276 39.77 70.6277 39.3987L57.6465 15.2903C56.7256 13.581 54.2744 13.581 53.3534 15.2903L40.3722 39.3987C40.1723 39.77 40.0722 40.1868 40.0815 40.6084C40.0909 41.03 40.2095 41.4419 40.4257 41.804C40.6419 42.166 40.9484 42.4658 41.3151 42.674C41.6818 42.8821 42.0963 42.9916 42.518 42.9917Z" stroke="currentColor" stroke-width="2" stroke-linecap="round" stroke-linejoin="round"/>
<path d="M55.0628 23.8832L55.5 33.1762L55.9365 23.887C55.9392 23.8277 55.9297 23.7684 55.9087 23.7127C55.8877 23.6571 55.8556 23.6064 55.8143 23.5636C55.7731 23.5208 55.7235 23.4869 55.6687 23.464C55.6138 23.441 55.5549 23.4294 55.4955 23.43C55.437 23.4306 55.3794 23.4429 55.3258 23.4661C55.2722 23.4893 55.2238 23.5231 55.1835 23.5653C55.1431 23.6076 55.1117 23.6575 55.091 23.7121C55.0702 23.7667 55.0607 23.8249 55.0628 23.8832Z" stroke="currentColor" stroke-width="2" stroke-linecap="round" stroke-linejoin="round"/>
<path d="M55.5 39.2593C55.1987 39.2593 54.9042 39.1699 54.6536 39.0025C54.4031 38.8351 54.2078 38.5972 54.0925 38.3188C53.9772 38.0405 53.9471 37.7342 54.0058 37.4386C54.0646 37.1431 54.2097 36.8717 54.4228 36.6586C54.6358 36.4455 54.9073 36.3005 55.2028 36.2417C55.4983 36.1829 55.8046 36.2131 56.083 36.3284C56.3614 36.4437 56.5993 36.6389 56.7667 36.8895C56.9341 37.14 57.0234 37.4345 57.0234 37.7358C57.0234 38.1399 56.8629 38.5274 56.5772 38.8131C56.2915 39.0988 55.904 39.2593 55.5 39.2593Z" fill="currentColor"/>
</svg>
