<svg width="100%" height="100%" viewBox="0 0 112 92" fill="none" xmlns="http://www.w3.org/2000/svg">
<path fill-rule="evenodd" clip-rule="evenodd" d="M98.0005 73.8525C98.0005 76.7391 95.7897 79.0792 93.0625 79.0792C90.3353 79.0792 88.1245 76.7391 88.1245 73.8525C88.1245 70.9658 90.3353 68.6257 93.0625 68.6257C95.7897 68.6257 98.0005 70.9658 98.0005 73.8525ZM96.116 73.8525C96.116 75.8006 94.6495 77.1947 93.0625 77.1947C91.4756 77.1947 90.009 75.8006 90.009 73.8525C90.009 71.9043 91.4756 70.5102 93.0625 70.5102C94.6495 70.5102 96.116 71.9043 96.116 73.8525Z" fill="currentColor"/>
<path fill-rule="evenodd" clip-rule="evenodd" d="M11.4059 16.577C13.3786 6.92863 21.8672 0 31.7152 0H84.3662C94.838 0 103.665 7.81002 104.941 18.2039L111.352 70.4314C111.564 71.5392 111.675 72.6828 111.675 73.8524C111.675 83.8446 103.575 91.9449 93.5825 91.9449H18.0925C8.1003 91.9449 0 83.8446 0 73.8524C0 73.2896 0.0256932 72.7329 0.0759704 72.1832L0.0381638 72.1755L0.115359 71.7979C0.237491 70.7174 0.454806 69.6656 0.75872 68.6513L11.4059 16.577ZM107.89 73.1583L107.629 71.0329C106.319 64.4724 100.528 59.5288 93.5825 59.5288H18.0925C11.6658 59.5288 6.22763 63.7614 4.41352 69.5911L3.84417 72.3758C3.79446 72.8612 3.76899 73.3538 3.76899 73.8524C3.76899 81.763 10.1819 88.1759 18.0925 88.1759H93.5825C101.493 88.1759 107.906 81.763 107.906 73.8524C107.906 73.6197 107.901 73.3883 107.89 73.1583ZM101.2 18.663L106.408 61.0916C103.132 57.7984 98.5952 55.7599 93.5825 55.7599H18.0925C13.6149 55.7599 9.51717 57.3864 6.35799 60.0809L15.0985 17.332C16.7125 9.43786 23.6578 3.76899 31.7152 3.76899H84.3662C92.934 3.76899 100.156 10.159 101.2 18.663Z" fill="currentColor"/>
<path d="M61.5938 22.4062L53.1539 32.1562L49.4062 28.4848" stroke="currentColor" stroke-width="2" stroke-linecap="round" stroke-linejoin="round"/>
<path d="M71.2752 17.5594C64.4639 16.3376 61.6478 15.4327 55.5 12.6562C49.3522 15.4327 46.5361 16.3376 39.7248 17.5594C38.4908 37.1173 54.3254 43.8707 55.5 44.3438C56.6746 43.8707 72.5092 37.1173 71.2752 17.5594Z" stroke="currentColor" stroke-width="2" stroke-linecap="round" stroke-linejoin="round"/>
</svg>
