<svg role="img" viewBox="0 0 24 24" xmlns="http://www.w3.org/2000/svg"><title>GitLab</title><path fill="#E24329" d="M12 22.1l4.42-13.6H7.58L12 22.1z"/><path fill="#FC6D26" d="M12 22.1L7.58 8.5H1.39L12 22.1z"/><path fill="#FCA326" d="M1.39 8.5l-.94 2.9c-.09.27.01.56.24.73L12 22.1 1.39 8.5z"/><path fill="#E24329" d="M1.39 8.5h6.19L4.92 1.27a.43.43 0 0 0-.82 0L1.39 8.5z"/><path fill="#FC6D26" d="M12 22.1l4.42-13.6h6.19L12 22.1z"/><path fill="#FCA326" d="M22.61 8.5l.94 2.9c.09.27-.01.56-.24.73L12 22.1l10.61-13.6z"/><path fill="#E24329" d="M22.61 8.5h-6.19l2.66-7.23a.43.43 0 0 1 .82 0l2.71 7.23z"/></svg>
