
<svg viewBox="0 0 121 121" xmlns="http://www.w3.org/2000/svg">
  <path
    d="M111.835 90.6061C112.091 90.1731 112.341 89.7369 112.585 89.2976L105.865 85.5584C105.651 85.9415 105.433 86.3218 105.211 86.6994L111.835 90.6061Z"
  />
  <path
    d="M111.921 82.3126C111.976 82.1863 112.03 82.0598 112.084 81.9331L108.558 80.4304C108.507 80.5484 108.457 80.6663 108.405 80.7839L111.921 82.3126Z"
  />
  <path
    d="M114.196 76.1002C114.236 75.9683 114.275 75.8363 114.314 75.7041L110.635 74.6273C110.599 74.7505 110.563 74.8735 110.526 74.9963L114.196 76.1002Z"
  />
  <path
    d="M115.711 69.7413C115.735 69.6057 115.758 69.47 115.781 69.3342L112.002 68.6929C111.981 68.8194 111.959 68.9458 111.936 69.0722L115.711 69.7413Z"
  />
  <path
    d="M116.477 63.2023C116.485 63.0648 116.493 62.9273 116.5 62.7898L112.671 62.596C112.665 62.7241 112.658 62.8522 112.65 62.9803L116.477 63.2023Z"
  />
  <path
    d="M116.48 56.7558C116.472 56.6183 116.464 56.4808 116.455 56.3434L112.63 56.5904C112.638 56.7184 112.646 56.8465 112.653 56.9745L116.48 56.7558Z"
  />
  <path
    d="M114.205 43.838C114.165 43.7061 114.125 43.5743 114.084 43.4427L110.421 44.5718C110.459 44.6944 110.496 44.8171 110.533 44.94L114.205 43.838Z"
  />
  <path
    d="M111.978 37.7306C111.923 37.6042 111.868 37.4779 111.813 37.3519L108.305 38.8974C108.356 39.0148 108.408 39.1324 108.459 39.2502L111.978 37.7306Z"
  />
  <path
    d="M109.046 31.8987C108.977 31.7795 108.907 31.6605 108.837 31.5418L105.533 33.4846C105.598 33.5952 105.663 33.706 105.727 33.8171L109.046 31.8987Z"
  />
  <path
    d="M105.478 26.4774C105.396 26.367 105.313 26.2568 105.23 26.1469L102.172 28.4586C102.249 28.561 102.326 28.6636 102.403 28.7665L105.478 26.4774Z"
  />
  <path
    d="M101.301 21.4976C101.206 21.3974 101.111 21.2976 101.016 21.1981L98.2465 23.8481C98.3352 23.9408 98.4236 24.0338 98.5116 24.1272L101.301 21.4976Z"
  />
  <path
    d="M91.3072 13.1107C91.1921 13.035 91.0768 12.9598 90.9611 12.885L88.879 16.1035C88.9867 16.1731 89.0942 16.2432 89.2014 16.3137L91.3072 13.1107Z"
  />
  <path
    d="M85.6651 9.85432C85.5421 9.79252 85.4188 9.73118 85.2952 9.6703L83.6005 13.1086C83.7156 13.1653 83.8305 13.2224 83.9451 13.28L85.6651 9.85432Z"
  />
  <path
    d="M79.6855 7.27516C79.5561 7.22805 79.4265 7.18142 79.2967 7.13527L78.0121 10.7469C78.133 10.7899 78.2537 10.8333 78.3743 10.8772L79.6855 7.27516Z"
  />
  <path
    d="M73.4811 5.41491C73.3471 5.38304 73.213 5.35167 73.0788 5.32079L72.2193 9.05647C72.3444 9.08523 72.4693 9.11446 72.5941 9.14414L73.4811 5.41491Z"
  />
  <path
    d="M67.1241 4.28516C66.9874 4.26891 66.8505 4.25317 66.7137 4.23793L66.2894 8.04764C66.417 8.06184 66.5444 8.07651 66.6718 8.09164L67.1241 4.28516Z"
  />
  <path
    d="M53.9975 4.27302C53.8607 4.28902 53.724 4.30552 53.5873 4.32253L54.0606 8.12645C54.188 8.11061 54.3153 8.09524 54.4428 8.08034L53.9975 4.27302Z"
  />
  <path
    d="M47.715 5.37301C47.581 5.40444 47.447 5.43636 47.3131 5.46878L48.2154 9.19433C48.3401 9.16413 48.4649 9.13439 48.5899 9.10511L47.715 5.37301Z"
  />
  <path
    d="M41.4231 7.24251C41.2936 7.28939 41.1643 7.33676 41.0352 7.3846L42.3667 10.9792C42.487 10.9346 42.6075 10.8905 42.7282 10.8468L41.4231 7.24251Z"
  />
  <path
    d="M35.4375 9.81224C35.3143 9.87383 35.1914 9.93587 35.0687 9.99837L36.8082 13.4142C36.9225 13.356 37.037 13.2982 37.1518 13.2408L35.4375 9.81224Z"
  />
  <path
    d="M29.7994 13.053C29.6842 13.1284 29.5692 13.2043 29.4546 13.2806L31.578 16.472C31.6848 16.4009 31.7919 16.3303 31.8992 16.26L29.7994 13.053Z"
  />
  <path
    d="M19.8792 21.3273C19.7843 21.4271 19.6898 21.5273 19.5956 21.6278L22.3931 24.2485C22.4808 24.1548 22.5689 24.0615 22.6573 23.9685L19.8792 21.3273Z"
  />
  <path
    d="M15.6658 26.3102C15.5832 26.4204 15.5009 26.5308 15.4191 26.6416L18.5021 28.9195C18.5784 28.8163 18.655 28.7134 18.732 28.6107L15.6658 26.3102Z"
  />
  <path
    d="M12.0819 31.7114C12.0125 31.8303 11.9436 31.9496 11.8751 32.069L15.2004 33.9758C15.2643 33.8645 15.3285 33.7534 15.3931 33.6426L12.0819 31.7114Z"
  />
  <path
    d="M9.14535 37.4902C9.09017 37.6163 9.03545 37.7427 8.98119 37.8693L12.5044 39.3795C12.555 39.2615 12.606 39.1438 12.6574 39.0262L9.14535 37.4902Z"
  />
  <path
    d="M6.88003 43.62C6.8399 43.7517 6.80026 43.8836 6.7611 44.0156L10.4362 45.1055C10.4726 44.9825 10.5096 44.8597 10.547 44.7369L6.88003 43.62Z"
  />
  <path
    d="M4.56455 56.3311C4.55565 56.4685 4.54725 56.606 4.53936 56.7435L8.36632 56.9631C8.37368 56.835 8.3815 56.707 8.38979 56.5789L4.56455 56.3311Z"
  />
  <path
    d="M4.52264 62.8617C4.52978 62.9993 4.53742 63.1368 4.54558 63.2742L8.37211 63.0473C8.36452 62.9193 8.3574 62.7911 8.35074 62.663L4.52264 62.8617Z"
  />
  <path
    d="M5.24339 69.37C5.26652 69.5058 5.29014 69.6415 5.31427 69.7771L9.08825 69.1055C9.06577 68.9792 9.04376 68.8528 9.02222 68.7263L5.24339 69.37Z"
  />
  <path
    d="M6.71719 75.7468C6.75598 75.8789 6.79526 76.0109 6.83502 76.1428L10.505 75.036C10.468 74.9131 10.4314 74.7902 10.3952 74.6671L6.71719 75.7468Z"
  />
  <path
    d="M8.87695 81.7971C8.9306 81.924 8.98472 82.0506 9.03931 82.1771L12.5586 80.6577C12.5077 80.5399 12.4573 80.4219 12.4073 80.3037L8.87695 81.7971Z"
  />
  <path
    d="M119.372 50.3842C119.291 49.8881 119.204 49.393 119.11 48.8991L111.554 50.3324C111.636 50.7631 111.712 51.1948 111.783 51.6274L119.372 50.3842Z"
  />
  <path
    d="M99.4634 14.7267C99.0837 14.3972 98.6999 14.0725 98.312 13.7527L93.4189 19.6861C93.7571 19.965 94.0918 20.2481 94.4229 20.5354L99.4634 14.7267Z"
  />
  <path
    d="M61.2735 0.038891C60.7709 0.0290338 60.2682 0.0254873 59.7654 0.0282522L59.8077 7.71888C60.2461 7.71647 60.6845 7.71956 61.1227 7.72816L61.2735 0.038891Z"
  />
  <path
    d="M22.2535 13.4468C21.8631 13.7636 21.4766 14.0852 21.0943 14.4116L26.0879 20.2606C26.4213 19.976 26.7583 19.6956 27.0987 19.4194L22.2535 13.4468Z"
  />
  <path
    d="M1.07789 48.9193C0.984365 49.4132 0.897043 49.9083 0.815948 50.4045L8.40597 51.6451C8.47668 51.2125 8.55282 50.7807 8.63437 50.35L1.07789 48.9193Z"
  />
  <path
    d="M7.74081 89.5377C7.98724 89.9759 8.23916 90.4109 8.49652 90.8428L15.1031 86.9058C14.8787 86.5292 14.6591 86.1499 14.4442 85.7678L7.74081 89.5377Z"
  />
</svg>
